<svg width="19" height="19" viewBox="0 0 19 19" fill="none" xmlns="http://www.w3.org/2000/svg">
<path d="M6.37988 18.094H2.37988C1.27988 18.094 0.379883 17.194 0.379883 16.094V2.09399C0.379883 0.993994 1.27988 0.0939941 2.37988 0.0939941H6.37988C7.47988 0.0939941 8.37988 0.993994 8.37988 2.09399V16.094C8.37988 17.194 7.47988 18.094 6.37988 18.094ZM12.3799 18.094H16.3799C17.4799 18.094 18.3799 17.194 18.3799 16.094V11.094C18.3799 9.99399 17.4799 9.09399 16.3799 9.09399H12.3799C11.2799 9.09399 10.3799 9.99399 10.3799 11.094V16.094C10.3799 17.194 11.2799 18.094 12.3799 18.094ZM18.3799 5.09399V2.09399C18.3799 0.993994 17.4799 0.0939941 16.3799 0.0939941H12.3799C11.2799 0.0939941 10.3799 0.993994 10.3799 2.09399V5.09399C10.3799 6.19399 11.2799 7.09399 12.3799 7.09399H16.3799C17.4799 7.09399 18.3799 6.19399 18.3799 5.09399Z" fill="white"/>
</svg>
