<svg width="18" height="18" viewBox="0 0 18 18" fill="none" xmlns="http://www.w3.org/2000/svg">
<g clip-path="url(#clip0_0_2948)">
<path d="M8.96048 10.5788C8.72638 10.5788 8.53029 10.4995 8.3722 10.3409C8.21357 10.1828 8.13425 9.98668 8.13425 9.75259C8.13425 9.51849 8.21357 9.32212 8.3722 9.16348C8.53029 9.0054 8.72638 8.92636 8.96048 8.92636C9.19458 8.92636 9.39095 9.0054 9.54958 9.16348C9.70767 9.32212 9.78671 9.51849 9.78671 9.75259C9.78671 9.98668 9.70767 10.1828 9.54958 10.3409C9.39095 10.4995 9.19458 10.5788 8.96048 10.5788ZM5.65556 10.5788C5.42146 10.5788 5.2251 10.4995 5.06646 10.3409C4.90837 10.1828 4.82933 9.98668 4.82933 9.75259C4.82933 9.51849 4.90837 9.32212 5.06646 9.16348C5.2251 9.0054 5.42146 8.92636 5.65556 8.92636C5.88966 8.92636 6.08603 9.0054 6.24466 9.16348C6.40275 9.32212 6.48179 9.51849 6.48179 9.75259C6.48179 9.98668 6.40275 10.1828 6.24466 10.3409C6.08603 10.4995 5.88966 10.5788 5.65556 10.5788ZM12.2654 10.5788C12.0313 10.5788 11.8352 10.4995 11.6771 10.3409C11.5185 10.1828 11.4392 9.98668 11.4392 9.75259C11.4392 9.51849 11.5185 9.32212 11.6771 9.16348C11.8352 9.0054 12.0313 8.92636 12.2654 8.92636C12.4995 8.92636 12.6956 9.0054 12.8537 9.16348C13.0123 9.32212 13.0916 9.51849 13.0916 9.75259C13.0916 9.98668 13.0123 10.1828 12.8537 10.3409C12.6956 10.4995 12.4995 10.5788 12.2654 10.5788ZM8.96048 13.8837C8.72638 13.8837 8.53029 13.8044 8.3722 13.6458C8.21357 13.4877 8.13425 13.2916 8.13425 13.0575C8.13425 12.8234 8.21357 12.6273 8.3722 12.4692C8.53029 12.3106 8.72638 12.2313 8.96048 12.2313C9.19458 12.2313 9.39095 12.3106 9.54958 12.4692C9.70767 12.6273 9.78671 12.8234 9.78671 13.0575C9.78671 13.2916 9.70767 13.4877 9.54958 13.6458C9.39095 13.8044 9.19458 13.8837 8.96048 13.8837ZM5.65556 13.8837C5.42146 13.8837 5.2251 13.8044 5.06646 13.6458C4.90837 13.4877 4.82933 13.2916 4.82933 13.0575C4.82933 12.8234 4.90837 12.6273 5.06646 12.4692C5.2251 12.3106 5.42146 12.2313 5.65556 12.2313C5.88966 12.2313 6.08603 12.3106 6.24466 12.4692C6.40275 12.6273 6.48179 12.8234 6.48179 13.0575C6.48179 13.2916 6.40275 13.4877 6.24466 13.6458C6.08603 13.8044 5.88966 13.8837 5.65556 13.8837ZM12.2654 13.8837C12.0313 13.8837 11.8352 13.8044 11.6771 13.6458C11.5185 13.4877 11.4392 13.2916 11.4392 13.0575C11.4392 12.8234 11.5185 12.6273 11.6771 12.4692C11.8352 12.3106 12.0313 12.2313 12.2654 12.2313C12.4995 12.2313 12.6956 12.3106 12.8537 12.4692C13.0123 12.6273 13.0916 12.8234 13.0916 13.0575C13.0916 13.2916 13.0123 13.4877 12.8537 13.6458C12.6956 13.8044 12.4995 13.8837 12.2654 13.8837ZM3.17687 17.1887C2.72245 17.1887 2.33329 17.027 2.00941 16.7037C1.68608 16.3798 1.52441 15.9906 1.52441 15.5362V3.96898C1.52441 3.51455 1.68608 3.12568 2.00941 2.80234C2.33329 2.47846 2.72245 2.31652 3.17687 2.31652H4.0031V0.664062H5.65556V2.31652H12.2654V0.664062H13.9179V2.31652H14.7441C15.1985 2.31652 15.5877 2.47846 15.9115 2.80234C16.2349 3.12568 16.3965 3.51455 16.3965 3.96898V15.5362C16.3965 15.9906 16.2349 16.3798 15.9115 16.7037C15.5877 17.027 15.1985 17.1887 14.7441 17.1887H3.17687ZM3.17687 15.5362H14.7441V7.2739H3.17687V15.5362Z" fill="#AAAAAA"/>
</g>
<defs>
<clipPath id="clip0_0_2948">
<rect width="16.5246" height="16.5246" fill="white" transform="translate(0.491699 0.664062)"/>
</clipPath>
</defs>
</svg>
