<svg width="27" height="27" viewBox="0 0 27 27" fill="none" xmlns="http://www.w3.org/2000/svg">
<path d="M11.1155 19.6205L21.4305 9.30553L19.3821 7.25717L11.1155 15.5238L6.94564 11.3539L4.89728 13.4022L11.1155 19.6205ZM2.92208 26.6434C2.11737 26.6434 1.42824 26.3572 0.854698 25.7846C0.282132 25.2111 -0.00415039 24.5219 -0.00415039 23.7172V3.2336C-0.00415039 2.42889 0.282132 1.73976 0.854698 1.16622C1.42824 0.593656 2.11737 0.307373 2.92208 0.307373H23.4057C24.2104 0.307373 24.8995 0.593656 25.4731 1.16622C26.0456 1.73976 26.3319 2.42889 26.3319 3.2336V23.7172C26.3319 24.5219 26.0456 25.2111 25.4731 25.7846C24.8995 26.3572 24.2104 26.6434 23.4057 26.6434H2.92208Z" fill="black"/>
</svg>
