<svg width="25" height="25" viewBox="0 0 25 25" fill="none" xmlns="http://www.w3.org/2000/svg">
<path d="M12.1821 3.0603C10.4021 3.0603 8.66204 3.58814 7.182 4.57708C5.70196 5.56601 4.54841 6.97162 3.86722 8.61615C3.18603 10.2607 3.0078 12.0703 3.35507 13.8161C3.70233 15.5619 4.5595 17.1656 5.81817 18.4243C7.07684 19.6829 8.68049 20.5401 10.4263 20.8874C12.1721 21.2346 13.9817 21.0564 15.6263 20.3752C17.2708 19.694 18.6764 18.5405 19.6654 17.0604C20.6543 15.5804 21.1821 13.8403 21.1821 12.0603C21.1821 11.6003 21.1421 11.1403 21.0821 10.7003C20.5825 11.401 19.9223 11.9718 19.1567 12.365C18.3912 12.7581 17.5427 12.9623 16.6821 12.9603C15.5373 12.9603 14.4221 12.5967 13.4973 11.922C12.5725 11.2472 11.886 10.2961 11.5367 9.20591C11.1874 8.11571 11.1934 6.94273 11.5538 5.85616C11.9142 4.76959 12.6105 3.82558 13.5421 3.1603C13.1021 3.1003 12.6421 3.0603 12.1821 3.0603Z" fill="#99B2C6"/>
</svg>
