<svg width="28" height="28" viewBox="0 0 28 28" fill="none" xmlns="http://www.w3.org/2000/svg">
<path d="M14 11.2C15.1139 11.2 16.1822 10.7575 16.9699 9.96984C17.7575 9.18218 18.2 8.1139 18.2 6.99999C18.2 5.88608 17.7575 4.81779 16.9699 4.03014C16.1822 3.24249 15.1139 2.79999 14 2.79999C12.8861 2.79999 11.8178 3.24249 11.0302 4.03014C10.2425 4.81779 9.80001 5.88608 9.80001 6.99999C9.80001 8.1139 10.2425 9.18218 11.0302 9.96984C11.8178 10.7575 12.8861 11.2 14 11.2ZM4.85101 20.2902C4.72104 20.6376 4.7067 21.0176 4.81013 21.3738C4.91355 21.73 5.12921 22.0432 5.42501 22.267C7.87688 24.1725 10.8948 25.2047 14 25.2C17.234 25.2 20.2132 24.1024 22.5834 22.26C23.1854 21.7938 23.429 20.9958 23.1546 20.286C22.4437 18.4352 21.1884 16.8435 19.5542 15.7209C17.9201 14.5983 15.984 13.9976 14.0014 13.998C12.0188 13.9985 10.0829 14.6001 8.44928 15.7234C6.81565 16.8468 5.56103 18.4391 4.85101 20.2902Z" fill="#99B2C6"/>
</svg>
