<svg width="24" height="25" viewBox="0 0 24 25" fill="none" xmlns="http://www.w3.org/2000/svg">
<path fill-rule="evenodd" clip-rule="evenodd" d="M4.17157 4.67157C3 5.84315 3 7.72876 3 11.5V13.5C3 17.2712 3 19.1569 4.17157 20.3284C5.34315 21.5 7.22876 21.5 11 21.5H13C16.7712 21.5 18.6569 21.5 19.8284 20.3284C21 19.1569 21 17.2712 21 13.5V11.5C21 7.72876 21 5.84315 19.8284 4.67157C18.6569 3.5 16.7712 3.5 13 3.5H11C7.22876 3.5 5.34315 3.5 4.17157 4.67157ZM11 7.5V11.5L7 11.5V13.5H11V17.5H13V13.5H17V11.5H13V7.5H11Z" fill="#99B2C6"/>
</svg>
