<svg width="21" height="21" viewBox="0 0 21 21" fill="none" xmlns="http://www.w3.org/2000/svg">
<g clip-path="url(#clip0_1_291)">
<path d="M11.2001 0.703249C11.4941 0.703249 11.7571 0.886249 11.8561 1.16025L12.5621 3.11725C12.8151 3.18025 13.0321 3.24325 13.2161 3.30925C13.4171 3.38125 13.6761 3.49025 13.9961 3.63925L15.6401 2.76925C15.7743 2.69816 15.9279 2.67249 16.0779 2.69611C16.2279 2.71973 16.3662 2.79136 16.4721 2.90025L17.9181 4.39525C18.1101 4.59425 18.1641 4.88525 18.0561 5.13925L17.2851 6.94625C17.4131 7.18125 17.5151 7.38225 17.5931 7.55025C17.6771 7.73325 17.7811 7.98525 17.9051 8.31025L19.7021 9.08025C19.9721 9.19525 20.1391 9.46525 20.1211 9.75425L19.9891 11.8292C19.98 11.9641 19.9316 12.0932 19.8499 12.2008C19.7681 12.3083 19.6566 12.3895 19.5291 12.4342L17.8271 13.0392C17.7781 13.2742 17.7271 13.4752 17.6731 13.6452C17.586 13.9078 17.4865 14.1661 17.3751 14.4192L18.2301 16.3092C18.2904 16.442 18.3067 16.5907 18.2764 16.7334C18.2462 16.8761 18.1711 17.0053 18.0621 17.1022L16.4361 18.5542C16.329 18.6495 16.1954 18.7097 16.0531 18.7269C15.9108 18.744 15.7667 18.7173 15.6401 18.6502L13.9641 17.7622C13.7019 17.9011 13.4313 18.0237 13.1541 18.1292L12.4221 18.4032L11.7721 20.2032C11.7239 20.3351 11.637 20.4492 11.5228 20.5308C11.4086 20.6124 11.2724 20.6575 11.1321 20.6602L9.23207 20.7032C9.08803 20.707 8.94637 20.6661 8.82656 20.586C8.70675 20.506 8.6147 20.3908 8.56307 20.2562L7.79707 18.2292C7.53572 18.1399 7.27695 18.0432 7.02107 17.9392C6.81179 17.8487 6.60567 17.7509 6.40307 17.6462L4.50307 18.4582C4.37788 18.5117 4.23986 18.5275 4.10581 18.5039C3.97177 18.4803 3.84748 18.4182 3.74807 18.3252L2.34207 17.0062C2.23739 16.9085 2.1661 16.7803 2.13829 16.6397C2.11047 16.4992 2.12754 16.3535 2.18707 16.2232L3.00407 14.4432C2.89542 14.2324 2.79468 14.0176 2.70207 13.7992C2.59397 13.532 2.49393 13.2615 2.40207 12.9882L0.612072 12.4432C0.466572 12.3993 0.339666 12.3085 0.251061 12.185C0.162457 12.0615 0.117113 11.9122 0.122072 11.7602L0.192072 9.83925C0.197054 9.71391 0.236208 9.59232 0.3053 9.48763C0.374391 9.38293 0.47079 9.29912 0.584072 9.24525L2.46207 8.34325C2.54907 8.02425 2.62507 7.77625 2.69207 7.59525C2.78641 7.3535 2.89118 7.11594 3.00607 6.88325L2.19207 5.16325C2.1303 5.03263 2.11154 4.88579 2.13849 4.74383C2.16544 4.60188 2.23672 4.47213 2.34207 4.37325L3.74607 3.04725C3.84449 2.95442 3.96764 2.89201 4.1007 2.86753C4.23376 2.84305 4.37105 2.85753 4.49607 2.90925L6.39407 3.69325C6.60407 3.55325 6.79407 3.44025 6.96607 3.34925C7.17107 3.24025 7.44507 3.12625 7.79007 3.00325L8.45007 1.16225C8.49887 1.02752 8.58806 0.91113 8.70546 0.82898C8.82287 0.74683 8.96278 0.702921 9.10607 0.703249H11.2001ZM10.1461 7.72225C8.47907 7.72225 7.12807 9.05725 7.12807 10.7052C7.12807 12.3532 8.47907 13.6892 10.1461 13.6892C11.8121 13.6892 13.1631 12.3532 13.1631 10.7052C13.1631 9.05725 11.8131 7.72225 10.1461 7.72225Z" fill="#99B2C6"/>
</g>
<defs>
<clipPath id="clip0_1_291">
<rect width="20" height="20" fill="white" transform="translate(0.12207 0.703247)"/>
</clipPath>
</defs>
</svg>
