<svg width="24" height="25" viewBox="0 0 24 25" fill="none" xmlns="http://www.w3.org/2000/svg">
<path fill-rule="evenodd" clip-rule="evenodd" d="M17.204 11.0718L19 9.27575C19.5453 8.7305 19.8179 8.45787 19.9636 8.16378C20.2409 7.60423 20.2409 6.94727 19.9636 6.38772C19.8179 6.09362 19.5453 5.821 19 5.27575C18.4548 4.7305 18.1821 4.45787 17.888 4.31214C17.3285 4.03486 16.6715 4.03486 16.112 4.31214C15.8179 4.45787 15.5453 4.7305 15 5.27575L13.1814 7.09441C14.1452 8.745 15.5314 10.1206 17.204 11.0718ZM11.7269 8.54886L4.8564 15.4194C4.43134 15.8444 4.21881 16.057 4.07907 16.3181C3.93934 16.5792 3.88039 16.8739 3.7625 17.4633L3.1471 20.5403C3.08058 20.8729 3.04732 21.0392 3.14193 21.1338C3.23654 21.2284 3.40284 21.1952 3.73545 21.1287L6.81243 20.5133C7.40189 20.3954 7.69661 20.3364 7.95771 20.1967C8.21881 20.057 8.43134 19.8444 8.8564 19.4194L15.7458 12.53C14.1241 11.5143 12.7524 10.152 11.7269 8.54886Z" fill="#99B2C6"/>
</svg>
