<svg width="24" height="24" viewBox="0 0 24 24" fill="none" xmlns="http://www.w3.org/2000/svg">
<path fill-rule="evenodd" clip-rule="evenodd" d="M14.8575 2.06426C13.9772 2 12.8936 2 11.5294 2C8.21363 2 6.55573 2 5.44461 2.92267C5.25491 3.08019 5.08019 3.25491 4.92267 3.44461C4 4.55573 4 6.21363 4 9.52942V14.4706C4 17.7864 4 19.4443 4.92267 20.5554C5.08019 20.7451 5.25491 20.9198 5.44461 21.0773C6.55573 22 8.21363 22 11.5294 22C14.8452 22 16.5031 22 17.6142 21.0773C17.8039 20.9198 17.9786 20.7451 18.1362 20.5554C19.0588 19.4443 19.0588 17.7864 19.0588 14.4706V10.6453C18.6006 11.1691 17.9272 11.5 17.1765 11.5C15.7958 11.5 14.6765 10.3807 14.6765 9V8.5H14.3529C12.9722 8.5 11.8529 7.38071 11.8529 6C11.8529 4.61929 12.9722 3.5 14.3529 3.5H14.6765V3C14.6765 2.66914 14.7407 2.35329 14.8575 2.06426Z" fill="#99B2C6"/>
<path d="M8 14L16 14M8 10L13.3333 10M8 18H13.3333" stroke="white" stroke-width="2" stroke-linecap="round"/>
<path d="M17 3V9" stroke="#99B2C6" stroke-width="2" stroke-linecap="round"/>
<path d="M14 6H20" stroke="#99B2C6" stroke-width="2" stroke-linecap="round"/>
</svg>
