<svg width="19" height="19" viewBox="0 0 19 19" fill="none" xmlns="http://www.w3.org/2000/svg">
<path fill-rule="evenodd" clip-rule="evenodd" d="M3.76432 5.17759C3.34853 5.17759 3.01146 5.51466 3.01146 5.93045V13.4591C3.01146 13.8749 3.34853 14.2119 3.76432 14.2119H14.3044C14.7202 14.2119 15.0572 13.8749 15.0572 13.4591V9.31833C15.0572 8.90253 14.7202 8.56547 14.3044 8.56547H12.8516C12.0965 8.56547 11.3913 8.18806 10.9724 7.55972L9.60779 5.51284C9.46816 5.3034 9.23309 5.17759 8.98137 5.17759H3.76432ZM1.50574 5.93045C1.50574 4.68307 2.51694 3.67187 3.76432 3.67187H8.98137C9.73653 3.67187 10.4417 4.04928 10.8606 4.67762L12.2252 6.7245C12.3648 6.93394 12.5999 7.05975 12.8516 7.05975H14.3044C15.5518 7.05975 16.563 8.07095 16.563 9.31833V13.4591C16.563 14.7064 15.5518 15.7176 14.3044 15.7176H3.76432C2.51694 15.7176 1.50574 14.7064 1.50574 13.4591V5.93045Z" fill="#99B2C6"/>
</svg>
