<svg width="25" height="26" viewBox="0 0 25 26" fill="none" xmlns="http://www.w3.org/2000/svg">
<path d="M8.4375 13.0035C9.51494 13.0035 10.5483 12.5755 11.3101 11.8137C12.072 11.0518 12.5 10.0185 12.5 8.94104C12.5 7.8636 12.072 6.83029 11.3101 6.06842C10.5483 5.30655 9.51494 4.87854 8.4375 4.87854C7.36006 4.87854 6.32675 5.30655 5.56488 6.06842C4.80301 6.83029 4.375 7.8636 4.375 8.94104C4.375 10.0185 4.80301 11.0518 5.56488 11.8137C6.32675 12.5755 7.36006 13.0035 8.4375 13.0035ZM15.5463 19.4348C16.2088 19.706 17.0512 19.8785 18.1237 19.8785C23.1237 19.8785 23.1238 16.1285 23.1238 16.1285C23.1238 15.6315 22.9264 15.1548 22.575 14.8032C22.2237 14.4516 21.7471 14.2539 21.25 14.2535H15.465C15.9562 14.8485 16.2513 15.6098 16.2513 16.441V16.886C16.2487 16.9913 16.2416 17.0964 16.23 17.201C16.1457 17.9821 15.9128 18.74 15.5463 19.4348ZM21.25 9.87854C21.25 10.7073 20.9208 11.5022 20.3347 12.0882C19.7487 12.6743 18.9538 13.0035 18.125 13.0035C17.2962 13.0035 16.5013 12.6743 15.9153 12.0882C15.3292 11.5022 15 10.7073 15 9.87854C15 9.04974 15.3292 8.25488 15.9153 7.66883C16.5013 7.08278 17.2962 6.75354 18.125 6.75354C18.9538 6.75354 19.7487 7.08278 20.3347 7.66883C20.9208 8.25488 21.25 9.04974 21.25 9.87854ZM1.875 16.7535C1.875 16.0905 2.13839 15.4546 2.60723 14.9858C3.07607 14.5169 3.71196 14.2535 4.375 14.2535H12.5C13.163 14.2535 13.7989 14.5169 14.2678 14.9858C14.7366 15.4546 15 16.0905 15 16.7535C15 16.7535 15 21.7535 8.4375 21.7535C1.875 21.7535 1.875 16.7535 1.875 16.7535ZM16.25 16.886L16.2463 16.966L16.2487 16.886H16.25Z" fill="#99B2C6"/>
</svg>
