<svg width="21" height="17" viewBox="0 0 21 17" fill="none" xmlns="http://www.w3.org/2000/svg">
<path d="M2.2373 16.6401C1.6873 16.6401 1.21664 16.4445 0.825305 16.0531C0.433305 15.6611 0.237305 15.1901 0.237305 14.6401V2.64014C0.237305 2.09014 0.433305 1.61947 0.825305 1.22814C1.21664 0.836137 1.6873 0.640137 2.2373 0.640137H18.2373C18.7873 0.640137 19.2583 0.836137 19.6503 1.22814C20.0416 1.61947 20.2373 2.09014 20.2373 2.64014V14.6401C20.2373 15.1901 20.0416 15.6611 19.6503 16.0531C19.2583 16.4445 18.7873 16.6401 18.2373 16.6401H2.2373ZM10.2373 9.46514C10.3206 9.46514 10.408 9.45247 10.4993 9.42714C10.5913 9.40247 10.679 9.36514 10.7623 9.31514L17.8373 4.89014C17.9706 4.8068 18.0706 4.7028 18.1373 4.57814C18.204 4.4528 18.2373 4.31514 18.2373 4.16514C18.2373 3.8318 18.0956 3.5818 17.8123 3.41514C17.529 3.24847 17.2373 3.2568 16.9373 3.44014L10.2373 7.64014L3.5373 3.44014C3.2373 3.2568 2.94564 3.25247 2.6623 3.42714C2.37897 3.60247 2.2373 3.84847 2.2373 4.16514C2.2373 4.3318 2.27064 4.47747 2.3373 4.60214C2.40397 4.72747 2.50397 4.82347 2.6373 4.89014L9.71231 9.31514C9.79564 9.36514 9.8833 9.40247 9.9753 9.42714C10.0666 9.45247 10.154 9.46514 10.2373 9.46514Z" fill="#B8B8B8"/>
</svg>
