<svg width="28" height="28" viewBox="0 0 28 28" fill="none" xmlns="http://www.w3.org/2000/svg">
<g clip-path="url(#clip0_1_55)">
<path d="M27.2245 14.0402C27.2245 12.934 27.1327 12.1268 26.9339 11.2897H14.0063V16.2824H21.5945C21.4416 17.5232 20.6154 19.3917 18.7795 20.6473L18.7538 20.8145L22.8413 23.9085L23.1244 23.9361C25.7252 21.5891 27.2245 18.136 27.2245 14.0402Z" fill="#4285F4"/>
<path d="M14.0063 27.1949C17.7239 27.1949 20.8448 25.9989 23.1244 23.9361L18.7795 20.6474C17.6169 21.4396 16.0563 21.9927 14.0063 21.9927C10.3653 21.9927 7.27491 19.6459 6.17329 16.4021L6.01182 16.4155L1.76164 19.6294L1.70605 19.7804C3.97026 24.1752 8.62111 27.1949 14.0063 27.1949Z" fill="#34A853"/>
<path d="M6.17319 16.4021C5.88252 15.565 5.7143 14.668 5.7143 13.7412C5.7143 12.8144 5.88252 11.9175 6.1579 11.0804L6.1502 10.9021L1.84676 7.63654L1.70596 7.70197C0.77277 9.52571 0.237305 11.5737 0.237305 13.7412C0.237305 15.9087 0.77277 17.9566 1.70596 19.7804L6.17319 16.4021Z" fill="#FBBC05"/>
<path d="M14.0063 5.48963C16.5918 5.48963 18.3358 6.58086 19.3303 7.49278L23.2162 3.78554C20.8296 1.61802 17.7239 0.287598 14.0063 0.287598C8.62111 0.287598 3.97026 3.30717 1.70605 7.70198L6.158 11.0804C7.27491 7.83657 10.3652 5.48963 14.0063 5.48963Z" fill="#EB4335"/>
</g>
<defs>
<clipPath id="clip0_1_55">
<rect width="27" height="27" fill="white" transform="translate(0.237305 0.287598)"/>
</clipPath>
</defs>
</svg>
