<svg width="25" height="25" viewBox="0 0 25 25" fill="none" xmlns="http://www.w3.org/2000/svg">
<path d="M12.1821 18.0603C10.5908 18.0603 9.06471 17.4282 7.93949 16.3029C6.81427 15.1777 6.18213 13.6516 6.18213 12.0603C6.18213 10.469 6.81427 8.94288 7.93949 7.81766C9.06471 6.69244 10.5908 6.0603 12.1821 6.0603C13.7734 6.0603 15.2996 6.69244 16.4248 7.81766C17.55 8.94288 18.1821 10.469 18.1821 12.0603C18.1821 13.6516 17.55 15.1777 16.4248 16.3029C15.2996 17.4282 13.7734 18.0603 12.1821 18.0603ZM11.1821 1.0603H13.1821V4.0603H11.1821V1.0603ZM11.1821 20.0603H13.1821V23.0603H11.1821V20.0603ZM3.69713 4.9893L5.11113 3.5753L7.23213 5.6963L5.81813 7.1103L3.69713 4.9893ZM17.1321 18.4243L18.5461 17.0103L20.6671 19.1313L19.2531 20.5453L17.1321 18.4243ZM19.2531 3.5743L20.6671 4.9893L18.5461 7.1103L17.1321 5.6963L19.2531 3.5753V3.5743ZM5.81813 17.0103L7.23213 18.4243L5.11113 20.5453L3.69713 19.1313L5.81813 17.0103ZM23.1821 11.0603V13.0603H20.1821V11.0603H23.1821ZM4.18213 11.0603V13.0603H1.18213V11.0603H4.18213Z" fill="black"/>
</svg>
