<svg width="30" height="29" viewBox="0 0 30 29" fill="none" xmlns="http://www.w3.org/2000/svg">
<path d="M25.3176 19.332C25.2236 19.2187 25.1313 19.1054 25.0407 18.9961C23.7946 17.4889 23.0407 16.5793 23.0407 12.3125C23.0407 10.1036 22.5122 8.29105 21.4706 6.93168C20.7026 5.92744 19.6643 5.16563 18.2959 4.60262C18.2783 4.59282 18.2626 4.57997 18.2495 4.56467C17.7573 2.91643 16.4103 1.8125 14.8912 1.8125C13.3721 1.8125 12.0258 2.91643 11.5336 4.56297C11.5204 4.57771 11.5049 4.59015 11.4877 4.59979C8.29431 5.91441 6.74235 8.43662 6.74235 12.3108C6.74235 16.5793 5.9896 17.4889 4.74237 18.9944C4.65175 19.1038 4.55942 19.2148 4.4654 19.3303C4.22253 19.6232 4.06865 19.9796 4.02197 20.3572C3.97529 20.7348 4.03778 21.1179 4.20202 21.4611C4.5515 22.1975 5.29632 22.6546 6.1465 22.6546H23.6422C24.4884 22.6546 25.2282 22.198 25.5788 21.4651C25.7437 21.1218 25.8068 20.7384 25.7605 20.3603C25.7142 19.9823 25.5605 19.6254 25.3176 19.332ZM14.8912 27.1875C15.7097 27.1868 16.5128 26.9647 17.2152 26.5445C17.9176 26.1244 18.4932 25.522 18.881 24.8012C18.8993 24.7667 18.9083 24.728 18.9072 24.6889C18.9061 24.6499 18.8949 24.6118 18.8747 24.5783C18.8546 24.5448 18.8261 24.5172 18.792 24.498C18.758 24.4788 18.7196 24.4687 18.6805 24.4688H11.1031C11.064 24.4686 11.0255 24.4786 10.9914 24.4978C10.9573 24.5169 10.9287 24.5446 10.9085 24.5781C10.8882 24.6115 10.877 24.6497 10.8759 24.6888C10.8747 24.7279 10.8838 24.7666 10.902 24.8012C11.2898 25.5219 11.8653 26.1243 12.5676 26.5444C13.2699 26.9645 14.0729 27.1867 14.8912 27.1875Z" fill="black"/>
</svg>
