<svg width="17" height="22" viewBox="0 0 17 22" fill="none" xmlns="http://www.w3.org/2000/svg">
<path d="M2.2373 21.9561C1.6873 21.9561 1.21664 21.7604 0.825305 21.3691C0.433305 20.9771 0.237305 20.5061 0.237305 19.9561V9.95605C0.237305 9.40605 0.433305 8.93505 0.825305 8.54305C1.21664 8.15172 1.6873 7.95605 2.2373 7.95605H3.2373V5.95605C3.2373 4.57272 3.72497 3.39339 4.7003 2.41805C5.67497 1.44339 6.85397 0.956055 8.2373 0.956055C9.62064 0.956055 10.8 1.44339 11.7753 2.41805C12.75 3.39339 13.2373 4.57272 13.2373 5.95605V7.95605H14.2373C14.7873 7.95605 15.2583 8.15172 15.6503 8.54305C16.0416 8.93505 16.2373 9.40605 16.2373 9.95605V19.9561C16.2373 20.5061 16.0416 20.9771 15.6503 21.3691C15.2583 21.7604 14.7873 21.9561 14.2373 21.9561H2.2373ZM8.2373 16.9561C8.7873 16.9561 9.2583 16.7604 9.6503 16.3691C10.0416 15.9771 10.2373 15.5061 10.2373 14.9561C10.2373 14.4061 10.0416 13.9351 9.6503 13.5431C9.2583 13.1517 8.7873 12.9561 8.2373 12.9561C7.6873 12.9561 7.21664 13.1517 6.8253 13.5431C6.4333 13.9351 6.2373 14.4061 6.2373 14.9561C6.2373 15.5061 6.4333 15.9771 6.8253 16.3691C7.21664 16.7604 7.6873 16.9561 8.2373 16.9561ZM5.2373 7.95605H11.2373V5.95605C11.2373 5.12272 10.9456 4.41439 10.3623 3.83105C9.77897 3.24772 9.07064 2.95605 8.2373 2.95605C7.40397 2.95605 6.69564 3.24772 6.1123 3.83105C5.52897 4.41439 5.2373 5.12272 5.2373 5.95605V7.95605Z" fill="#B8B8B8"/>
</svg>
