<svg width="71" height="71" viewBox="0 0 71 71" fill="none" xmlns="http://www.w3.org/2000/svg">
<path d="M35.5491 0.252441C16.3702 0.252441 0.494934 15.855 0.494934 35.0338C0.494934 54.2127 16.3702 70.088 35.5491 70.088C54.728 70.088 70.3305 54.2127 70.3305 35.0338C70.3305 15.855 54.728 0.252441 35.5491 0.252441ZM53.9628 39.1258H39.641V53.7203C39.641 55.9763 37.8038 57.8122 35.5491 57.8122C33.2931 57.8122 31.4572 55.9763 31.4572 53.7203V39.1258H16.8626C14.6066 39.1258 12.7707 37.2898 12.7707 35.0338C12.7707 32.7778 14.6066 30.9419 16.8626 30.9419H31.4572V16.6202C31.4572 14.3641 33.2931 12.5282 35.5491 12.5282C37.8038 12.5282 39.641 14.3641 39.641 16.6202V30.9419H53.9628C56.2174 30.9419 58.0547 32.7778 58.0547 35.0338C58.0547 37.2898 56.2174 39.1258 53.9628 39.1258Z" fill="white"/>
</svg>
