<svg width="33" height="25" viewBox="0 0 33 25" fill="none" xmlns="http://www.w3.org/2000/svg">
<path d="M19.3638 18.117L23.6468 22.399L22.2318 23.814L17.9498 19.531C16.3565 20.8082 14.3748 21.5029 12.3328 21.5C7.36476 21.5 3.33276 17.468 3.33276 12.5C3.33276 7.532 7.36476 3.5 12.3328 3.5C17.3008 3.5 21.3328 7.532 21.3328 12.5C21.3357 14.542 20.641 16.5237 19.3638 18.117ZM17.3578 17.375C18.6269 16.0699 19.3356 14.3204 19.3328 12.5C19.3328 8.632 16.1998 5.5 12.3328 5.5C8.46476 5.5 5.33276 8.632 5.33276 12.5C5.33276 16.367 8.46476 19.5 12.3328 19.5C14.1532 19.5029 15.9026 18.7941 17.2078 17.525L17.3578 17.375Z" fill="#B8B8B8"/>
</svg>
