<svg width="16" height="17" viewBox="0 0 16 17" fill="none" xmlns="http://www.w3.org/2000/svg">
<g clip-path="url(#clip0_2830_189)">
<path d="M7.88599 8.03148C8.94482 8.03148 9.86157 7.65172 10.6108 6.90245C11.3599 6.15331 11.7397 5.23668 11.7397 4.17773C11.7397 3.11914 11.36 2.20239 10.6107 1.453C9.86145 0.703979 8.9447 0.324219 7.88599 0.324219C6.82703 0.324219 5.9104 0.703979 5.16125 1.45312C4.41211 2.20227 4.03223 3.11901 4.03223 4.17773C4.03223 5.23668 4.41211 6.15343 5.16125 6.90258C5.91064 7.6516 6.82739 8.03148 7.88599 8.03148ZM5.82434 2.11609C6.39917 1.54126 7.07349 1.26184 7.88599 1.26184C8.69836 1.26184 9.3728 1.54126 9.94775 2.11609C10.5226 2.69104 10.8021 3.36547 10.8021 4.17773C10.8021 4.99023 10.5226 5.66454 9.94775 6.23949C9.3728 6.81444 8.69836 7.09386 7.88599 7.09386C7.07373 7.09386 6.39941 6.81432 5.82434 6.23949C5.24939 5.66466 4.96985 4.99023 4.96985 4.17773C4.96985 3.36547 5.24939 2.69104 5.82434 2.11609Z" fill="black"/>
<path d="M14.629 12.6274C14.6074 12.3157 14.5637 11.9756 14.4994 11.6164C14.4344 11.2546 14.3508 10.9126 14.2507 10.6C14.1472 10.2769 14.0067 9.95776 13.8328 9.65197C13.6525 9.33459 13.4406 9.05823 13.2028 8.83081C12.9541 8.59289 12.6497 8.40161 12.2976 8.26208C11.9468 8.12329 11.558 8.05298 11.1421 8.05298C10.9788 8.05298 10.8208 8.12 10.5157 8.3186C10.328 8.44104 10.1084 8.58264 9.86328 8.73926C9.65369 8.8728 9.36975 8.99792 9.01904 9.1112C8.67688 9.22192 8.32947 9.27807 7.98645 9.27807C7.64368 9.27807 7.29626 9.22192 6.95386 9.1112C6.60352 8.99805 6.31946 8.87292 6.11023 8.73938C5.86743 8.58423 5.64771 8.44263 5.45715 8.31848C5.15234 8.11987 4.99438 8.05286 4.83105 8.05286C4.41504 8.05286 4.02637 8.12329 3.67566 8.26221C3.32385 8.40149 3.01929 8.59277 2.77039 8.83093C2.53259 9.05847 2.32068 9.33471 2.1405 9.65197C1.9668 9.95776 1.82617 10.2767 1.72266 10.6001C1.62268 10.9127 1.53906 11.2546 1.47412 11.6164C1.40967 11.9751 1.36609 12.3153 1.34448 12.6278C1.32324 12.9333 1.3125 13.2513 1.3125 13.5726C1.3125 14.4078 1.578 15.084 2.10156 15.5826C2.61865 16.0747 3.30273 16.3242 4.13489 16.3242H11.839C12.6709 16.3242 13.355 16.0747 13.8722 15.5826C14.3959 15.0843 14.6614 14.4079 14.6614 13.5725C14.6613 13.2501 14.6504 12.9321 14.629 12.6274ZM13.2257 14.9033C12.884 15.2285 12.4304 15.3866 11.8389 15.3866H4.13489C3.54321 15.3866 3.0896 15.2285 2.74805 14.9034C2.41296 14.5845 2.25012 14.149 2.25012 13.5726C2.25012 13.2728 2.26001 12.9768 2.27979 12.6926C2.29907 12.4138 2.3385 12.1075 2.39697 11.7821C2.45471 11.4607 2.5282 11.1591 2.6156 10.886C2.69946 10.6241 2.81384 10.3649 2.95569 10.1151C3.09106 9.87707 3.24683 9.67285 3.4187 9.5083C3.57947 9.35437 3.7821 9.22839 4.02087 9.13391C4.2417 9.04651 4.48987 8.99866 4.75928 8.99145C4.79211 9.00891 4.85059 9.04223 4.94531 9.104C5.13806 9.22961 5.36023 9.37292 5.60583 9.52978C5.88269 9.7063 6.23938 9.86572 6.66553 10.0033C7.1012 10.1442 7.54553 10.2157 7.98657 10.2157C8.42761 10.2157 8.87207 10.1442 9.3075 10.0034C9.73401 9.8656 10.0906 9.7063 10.3678 9.52954C10.6191 9.36889 10.8351 9.22973 11.0278 9.104C11.1226 9.04236 11.181 9.00891 11.2139 8.99145C11.4834 8.99866 11.7316 9.04651 11.9525 9.13391C12.1912 9.22839 12.3938 9.35449 12.5546 9.5083C12.7264 9.67273 12.8822 9.87695 13.0176 10.1152C13.1595 10.3649 13.274 10.6243 13.3578 10.8859C13.4453 11.1593 13.5189 11.4608 13.5765 11.782C13.6349 12.108 13.6744 12.4144 13.6937 12.6927V12.693C13.7136 12.9761 13.7236 13.272 13.7238 13.5726C13.7236 14.1492 13.5608 14.5845 13.2257 14.9033Z" fill="black"/>
</g>
<defs>
<clipPath id="clip0_2830_189">
<rect width="16" height="16" fill="white" transform="translate(0 0.324219)"/>
</clipPath>
</defs>
</svg>
